<svg width="251" height="243" viewBox="0 0 251 243" fill="none" xmlns="http://www.w3.org/2000/svg">
<g clip-path="url(#clip0)">
<path d="M23.78 188.576H29.2976L53.08 241.135H46.7412L40.63 227.344H12.2256L6.0381 241.135H0L23.78 188.576ZM38.3181 222.053L26.4638 195.437L14.5361 222.053H38.3181Z" fill="#726658"/>
<path d="M63.8886 188.951H69.7793V241.135H63.8886V188.951Z" fill="#726658"/>
<path d="M109.288 242.032C105.561 242.082 101.865 241.345 98.4414 239.87C95.2967 238.506 92.4564 236.527 90.0878 234.05C87.7193 231.572 85.8702 228.646 84.6494 225.443C83.3809 222.175 82.7369 218.698 82.7509 215.193V215.045C82.7386 211.524 83.3955 208.032 84.6865 204.755C86.0553 201.452 88.0653 198.453 90.6003 195.931C93.1352 193.409 96.1448 191.415 99.4552 190.063C102.766 188.712 106.311 188.03 109.887 188.057C113.462 188.084 116.997 188.819 120.286 190.22C123.431 191.583 126.271 193.562 128.64 196.039C131.008 198.517 132.857 201.443 134.077 204.645C135.347 207.913 135.991 211.39 135.976 214.895C135.987 214.904 135.997 214.916 136.003 214.929C136.009 214.942 136.013 214.956 136.013 214.971C136.013 214.985 136.009 215 136.003 215.013C135.997 215.026 135.987 215.037 135.976 215.046C135.986 218.567 135.33 222.058 134.04 225.334C132.115 230.313 128.711 234.583 124.286 237.569C119.86 240.554 114.626 242.112 109.288 242.033L109.288 242.032ZM109.438 236.588C112.272 236.619 115.08 236.048 117.676 234.913C120.118 233.842 122.312 232.281 124.124 230.326C125.939 228.347 127.368 226.047 128.337 223.542C129.368 220.88 129.886 218.047 129.864 215.192V215.045C129.884 212.178 129.366 209.333 128.337 206.657C127.376 204.132 125.927 201.822 124.072 199.858C122.216 197.894 119.992 196.315 117.526 195.212C114.936 194.052 112.125 193.468 109.288 193.498C106.454 193.468 103.646 194.04 101.05 195.175C98.6083 196.245 96.4137 197.807 94.6022 199.762C92.7873 201.74 91.3585 204.041 90.3893 206.545C89.3567 209.206 88.8384 212.039 88.862 214.894V215.045C88.8409 217.911 89.359 220.756 90.3893 223.43C91.3503 225.955 92.7998 228.265 94.6549 230.229C96.5099 232.193 98.7341 233.771 101.2 234.874C103.79 236.034 106.601 236.619 109.438 236.588H109.438Z" fill="#726658"/>
<path d="M148.427 188.951H170.868C173.797 188.901 176.711 189.368 179.477 190.331C181.808 191.139 183.932 192.45 185.7 194.171C186.996 195.465 188.011 197.013 188.683 198.717C189.396 200.546 189.751 202.494 189.727 204.457V204.607C189.762 206.607 189.407 208.594 188.683 210.459C188.014 212.133 187.013 213.654 185.739 214.93C184.43 216.23 182.903 217.29 181.227 218.063C179.428 218.901 177.522 219.491 175.563 219.815L191.591 241.135H184.36L169.225 220.858H154.315V241.135H148.427L148.427 188.951ZM170.384 215.565C172.205 215.583 174.019 215.331 175.767 214.818C177.305 214.376 178.749 213.657 180.028 212.696C181.243 211.783 182.222 210.593 182.884 209.225C183.547 207.858 183.873 206.352 183.837 204.833V204.683C183.903 203.232 183.619 201.787 183.007 200.47C182.396 199.153 181.476 198.002 180.325 197.117C177.985 195.298 174.697 194.391 170.46 194.395H154.315V215.565H170.384Z" fill="#726658"/>
<path d="M221.636 188.576H227.151L250.931 241.135H244.597L238.483 227.344H210.081L203.89 241.135H197.853L221.636 188.576ZM236.171 222.053L224.317 195.437L212.39 222.053H236.171Z" fill="#726658"/>
<path d="M182.649 158.263H181.786V157.955H183.884V158.263H183.015V160.791H182.649V158.263Z" fill="#726658"/>
<path d="M186.561 159.545C186.54 159.149 186.515 158.672 186.52 158.32H186.505C186.409 158.651 186.292 159.01 186.147 159.397L185.647 160.769H185.372L184.911 159.422C184.776 159.02 184.665 158.656 184.589 158.32H184.575C184.565 158.678 184.548 159.145 184.52 159.572L184.444 160.787H184.097L184.296 157.955H184.761L185.245 159.326C185.362 159.673 185.456 159.984 185.532 160.282H185.542C185.616 159.994 185.716 159.683 185.843 159.326L186.347 157.955H186.816L186.991 160.787H186.632L186.561 159.545Z" fill="#726658"/>
<path d="M76.4384 163.463C76.2296 162.46 75.6701 161.564 74.8603 160.936C74.0505 160.309 73.0435 159.99 72.02 160.038C69.8217 160.038 68.34 161.105 68.34 162.68C68.34 164.565 70.8126 165.185 73.3449 165.976C76.1564 166.874 79.6691 168.249 79.6691 171.932C79.6691 175.337 76.716 177.815 72.3291 177.815C70.5478 177.92 68.7871 177.389 67.3604 176.317C65.9336 175.246 64.9332 173.703 64.5372 171.963L67.5137 171.145C67.7219 172.281 68.3372 173.302 69.2443 174.017C70.1515 174.732 71.2882 175.091 72.4414 175.028C74.9434 175.028 76.4114 173.735 76.4114 172.048C76.4114 169.606 73.3714 169.094 70.5814 168.168C68.2757 167.38 65.1566 166.285 65.1566 162.848C65.1566 159.785 68.1117 157.341 72.1585 157.341C75.8167 157.341 78.6885 159.504 79.4185 162.653L76.4384 163.463Z" fill="#726658"/>
<path d="M97.874 174.499V177.422H84.176V157.729H97.704V160.652H87.298V165.775H95.593V168.534H87.298V174.499H97.874Z" fill="#726658"/>
<path d="M113.686 177.422L109.522 170.362C109.318 170.384 109.113 170.393 108.907 170.388H105.584V177.422H102.46V157.729H108.907C113.626 157.729 116.474 160.233 116.474 164.119C116.526 165.366 116.169 166.595 115.459 167.621C114.748 168.646 113.722 169.412 112.536 169.8L117.204 177.422L113.686 177.422ZM109.272 167.635C111.943 167.635 113.233 166.057 113.233 164.119C113.233 162.087 111.831 160.651 109.272 160.651H105.584V167.635H109.272Z" fill="#726658"/>
<path d="M134.819 174.499V177.422H121.118V157.729H134.645V160.652H124.239V165.775H132.534V168.534H124.239V174.499H134.819Z" fill="#726658"/>
<path d="M155.98 157.731V177.422H153.05L145.877 167.744C144.131 165.353 142.439 162.902 142.413 162.902H142.39C142.363 162.902 142.439 165.548 142.439 169.065V177.422H139.322V157.731H142.243L149.478 167.436C150.88 169.346 152.855 172.102 152.876 172.102H152.91C152.938 172.102 152.855 169.205 152.855 166.114V157.731H155.98Z" fill="#726658"/>
<path d="M181.087 172.948H171.895L170.069 177.422H166.727L175.046 157.731H177.938L186.27 177.422H182.923L181.087 172.948ZM179.968 170.221L177.438 164.057C177.015 162.997 176.538 161.497 176.508 161.497H176.48C176.455 161.497 175.97 162.996 175.552 164.057L173.023 170.221H179.968Z" fill="#726658"/>
<path d="M164.054 157.731H160.927V161.979H164.054V157.731Z" fill="#726658"/>
<path d="M164.054 163.971H160.933V177.422H164.054V163.971Z" fill="#726658"/>
<path d="M76.4443 163.477C76.2367 162.471 75.6771 161.572 74.8661 160.942C74.0552 160.311 73.046 159.991 72.02 160.038C69.8217 160.038 68.3325 161.109 68.3325 162.687C68.3325 164.572 70.8071 165.191 73.3452 165.983C76.1567 166.882 79.6801 168.263 79.6801 171.95C79.6801 175.359 76.7211 177.834 72.3295 177.834C70.5469 177.94 68.7846 177.41 67.3566 176.338C65.9285 175.266 64.9274 173.722 64.5317 171.98L67.5141 171.163C67.7201 172.3 68.3347 173.322 69.2424 174.038C70.15 174.754 71.2879 175.113 72.4418 175.047C74.9497 175.047 76.4118 173.753 76.4118 172.063C76.4118 169.612 73.3718 169.107 70.5818 168.173C68.2761 167.392 65.1492 166.293 65.1492 162.852C65.1492 159.784 68.1082 157.339 72.1592 157.339C73.7992 157.252 75.4191 157.734 76.744 158.705C78.069 159.675 79.0177 161.074 79.4292 162.664L76.4443 163.477Z" fill="#726658"/>
<path d="M97.905 174.514V177.443H84.192V157.731H97.734V160.658H87.313V165.784H95.618V168.541H87.313V174.514H97.905Z" fill="#726658"/>
<path d="M113.733 177.443L109.565 170.373C109.359 170.399 109.15 170.41 108.942 170.404H105.62V177.443H102.497V157.731H108.942C113.675 157.731 116.521 160.235 116.521 164.119C116.574 165.369 116.217 166.601 115.504 167.629C114.791 168.656 113.762 169.423 112.573 169.811L117.255 177.443H113.733ZM109.308 167.645C111.983 167.645 113.276 166.063 113.276 164.119C113.276 162.094 111.872 160.652 109.308 160.652H105.62V167.645H109.308Z" fill="#726658"/>
<path d="M134.882 174.514V177.443H121.169V157.731H134.712V160.658H124.292V165.784H132.602V168.541H124.292V174.514H134.882Z" fill="#726658"/>
<path d="M156.067 157.731V177.443H153.136L145.956 167.755C144.207 165.364 142.516 162.908 142.491 162.908H142.46C142.436 162.908 142.517 165.557 142.517 169.076V177.443H139.39V157.731H142.32L149.552 167.444C150.968 169.357 152.938 172.116 152.967 172.116H152.994C153.025 172.116 152.938 169.22 152.938 166.125V157.731H156.067Z" fill="#726658"/>
<path d="M181.214 172.961H172.013L170.183 177.443H166.827L175.165 157.729H178.062L186.398 177.443H183.05L181.214 172.961ZM180.089 170.235L177.558 164.065C177.13 162.996 176.661 161.505 176.628 161.505H176.598C176.571 161.505 176.096 162.996 175.671 164.065L173.137 170.235H180.089Z" fill="#726658"/>
<path d="M164.153 157.729H161.028V161.983H164.153V157.729Z" fill="#726658"/>
<path d="M164.153 163.979H161.028V177.443H164.153V163.979Z" fill="#726658"/>
<path d="M165.947 44.5878C162.69 36.0048 155.882 33.9325 147.597 36.5978C137.54 39.5563 133.986 41.923 130.135 51.9855C126.376 61.1207 119.936 68.7975 115.237 77.4435C113.934 81.067 112.886 84.527 112.803 84.797C112.389 86.4581 111.967 88.117 111.639 89.7887C110.493 95.4516 110.104 101.242 110.481 107.007C110.443 108.273 110.653 109.535 111.1 110.72C111.788 112.104 113.584 113.763 115.223 113.43C116.92 113.082 118.42 111.231 119.653 110.135C123.862 106.392 128.027 102.617 132.189 98.8254C134.632 96.6037 137.042 94.3493 139.421 92.0622C143.913 87.7434 148.044 83.0549 150.854 77.4422C154.107 71.2239 153.813 62.3455 159.143 57.6111C161.212 55.8323 165.947 55.5374 167.427 52.8758C168.315 50.8036 166.835 46.66 165.947 44.5878Z" fill="#CDDE5C"/>
<path d="M118.465 102.116C117.283 104.28 116.255 106.525 115.388 108.833C114.071 112.47 113.458 116.344 112.158 119.984C110.679 124.129 108.607 130.048 111.568 134.191C115.709 139.817 129.031 138.93 132.581 133.01C137.019 125.607 143.821 97.1997 135.245 91.2773C128.763 86.8061 122.321 94.9965 118.465 102.116Z" fill="#78CDD4"/>
<path d="M129.118 56.5741C126.543 60.1298 127.331 65.3168 125.993 69.4081C123.299 77.6601 118.72 78.9301 110.999 76.8617C107.452 75.8324 104.136 74.1323 101.229 71.8534C95.0698 67.0181 90.1697 60.766 86.9463 53.6293C83.5185 46.4413 80.5693 38.9233 77.6463 31.5209C74.8691 24.4941 72.0381 16.34 73.9443 8.71771C75.8681 1.03771 84.6963 -1.82629 91.291 1.16251C99.101 4.69961 103.991 13.3417 109.401 19.5937C114.467 25.4545 119.801 31.1776 124.362 37.5037C127.422 41.7493 129.717 46.2637 130.296 51.6268C130.57 54.1121 130.57 54.5882 129.118 56.5745" fill="#FBB56B"/>
<path d="M173.987 51.7948C171.614 50.8456 169.153 50.1327 166.64 49.6664C166.454 49.121 166.176 48.4301 165.909 47.7773C165.749 47.3901 165.597 47.0273 165.477 46.7548C165.351 46.4638 165.295 46.3197 165.244 46.2157C164.025 43.4765 162.132 41.0909 159.741 39.2817C157.225 37.413 154.187 36.3787 151.054 36.3241C147.857 36.4051 144.757 37.4319 142.144 39.2748C136.864 42.787 132.45 48.724 129.15 54.289C128.907 53.8129 128.661 53.3378 128.404 52.8764L128.398 52.8705L128.393 52.8554C122.388 43.209 115.569 34.094 108.011 25.61L107.994 25.5963L107.979 25.5787C107.956 25.5587 94.375 11.3673 84.4345 3.64219C83.9141 3.17634 83.3704 2.73714 82.8056 2.32629C82.3154 1.96508 81.7979 1.64247 81.2578 1.36139C80.6937 1.04842 80.0652 0.86928 79.4209 0.837786C79.1093 0.831754 78.8004 0.896925 78.5178 1.02833C78.2351 1.15974 77.9862 1.35393 77.79 1.59609C77.4192 2.11436 77.2348 2.74284 77.2666 3.37929C77.331 4.58535 77.5762 5.77489 77.9941 6.90809C78.6739 8.87603 79.4646 10.8039 80.3623 12.6825C82.8681 18.0712 83.4765 23.9584 83.7617 30.0473C84.0517 36.1298 84.0117 42.4037 85.3877 48.5141C86.4343 52.573 88.6336 56.2422 91.72 59.0785C94.6577 61.8191 97.8175 64.3115 101.167 66.53C103.669 68.2888 106.276 70.01 108.942 71.6213C110.165 72.2873 113.274 73.7331 114.888 72.2522C110.617 69.952 106.497 67.3845 102.55 64.5652C99.3113 62.4202 96.2541 60.0132 93.4091 57.3684C90.6516 54.8534 88.681 51.5939 87.7353 47.9836C86.4306 42.2361 86.4502 36.1028 86.1631 29.9336C85.872 23.7686 85.2646 17.541 82.5439 11.6709C81.6856 9.87696 80.9297 8.03576 80.28 6.15619C79.9447 5.26459 79.7395 4.32937 79.6707 3.37929C79.6707 3.35249 79.6726 3.32409 79.6726 3.29729C79.8444 3.35375 80.0116 3.42346 80.1726 3.50579C80.8064 3.85095 81.4072 4.2535 81.9675 4.70839C82.2293 4.91639 82.4529 5.10289 82.6091 5.23579C82.7644 5.37249 82.8445 5.44579 82.8445 5.44579L82.8816 5.48049L82.9226 5.51219C88.2546 9.81113 93.3624 14.3811 98.2256 19.204C100.54 21.4501 102.544 23.4609 103.97 24.9101C104.388 25.3344 104.755 25.7089 105.065 26.0277C101.78 25.1066 98.4033 24.5513 94.9961 24.372C93.9834 24.3399 92.9837 24.6071 92.122 25.1401C91.4541 25.5673 91.5966 25.9941 92.3642 26.0439C97.54 26.3681 105.014 28.1928 109.604 31.1381C112.757 34.8798 115.518 38.4438 117.846 41.5981C111.529 39.2753 104.799 38.2861 98.081 38.6928C97.5798 38.6689 97.0796 38.7558 96.6157 38.9471C96.1519 39.1385 95.736 39.4297 95.3974 39.8C94.8603 40.5739 95.8466 41.0139 96.4951 40.9836C102.848 40.5838 109.213 41.5359 115.171 43.7771C117.829 44.999 120.331 46.535 122.624 48.3523C123.578 49.7663 124.362 50.9636 124.955 51.8903C125.406 52.5959 125.749 53.1467 125.979 53.5212C126.165 53.8254 126.274 54.007 126.31 54.0671C126.81 54.9436 127.268 55.8762 127.697 56.8396C126.556 58.925 125.582 60.8947 124.805 62.5783C122.096 68.7151 120.007 75.1068 118.567 81.6583L118.562 81.6827L118.558 81.6927C118.556 81.7347 114.208 103.22 114.198 115.749C114.198 116.829 114.23 117.844 114.304 118.786C113.99 120.55 113.829 122.338 113.824 124.129C113.803 126.647 114.177 129.153 114.931 131.555C115.443 133.393 116.474 135.043 117.902 136.308C119.118 137.297 120.641 137.829 122.209 137.815H122.238C124.569 137.7 126.821 136.933 128.738 135.601C130.754 134.294 132.544 132.668 134.038 130.786C137.199 126.86 139.212 122.135 139.855 117.136C139.953 116.261 140.001 115.381 139.998 114.501C139.99 108.751 138.172 102.808 137.527 97.6248C137.36 96.3084 137.193 94.9907 137.025 93.6717C139.906 91.7607 142.626 89.6185 145.16 87.2664C149.321 83.3853 152.539 78.6041 154.568 73.2884C155.445 70.8213 156.059 68.2681 156.398 65.6717C156.644 63.8617 156.525 62.2635 156.611 60.8743C156.623 59.5232 157.042 58.2072 157.814 57.0984C159.69 54.5036 162.433 52.6665 165.546 51.9197C169.369 52.5514 173.069 53.7746 176.515 55.5452C176.515 55.5452 177.54 53.518 173.987 51.7948ZM118.757 94.414C119.298 90.9721 119.841 87.9081 120.243 85.704C120.62 83.6659 120.876 82.3705 120.913 82.1908C122.315 75.8017 124.35 69.5681 126.987 63.5824C127.517 62.4296 128.151 61.1324 128.862 59.7572C130.163 63.5146 131.131 67.3791 131.755 71.3061C132.172 73.7948 132.794 75.9604 133.012 77.6176C132.997 78.0876 132.983 78.5576 132.983 79.0268C132.982 81.2709 133.182 83.5107 133.581 85.7191C133.87 87.9833 134.16 90.2502 134.45 92.5199C133.692 93.0399 132.929 93.5561 132.169 94.0819C128.184 96.83 124.216 99.7284 121.054 103.622C119.339 105.767 117.909 108.124 116.8 110.636C117.162 105.454 117.956 99.5121 118.757 94.414ZM137.595 114.501C137.597 115.288 137.554 116.075 137.464 116.857C136.871 121.413 135.034 125.717 132.153 129.295C130.822 130.967 129.23 132.414 127.438 133.578C125.907 134.658 124.107 135.291 122.237 135.408C121.214 135.433 120.216 135.09 119.425 134.442C118.356 133.471 117.591 132.212 117.22 130.817C116.542 128.653 116.208 126.397 116.23 124.13C116.232 122.377 116.397 120.628 116.724 118.907H116.728L116.726 118.897C117.647 113.877 119.774 109.156 122.923 105.138C125.821 101.561 129.583 98.7821 133.532 96.0633C133.95 95.7718 134.372 95.4862 134.791 95.1976C134.907 96.1121 135.025 97.0189 135.139 97.9256C135.845 103.392 137.605 109.26 137.595 114.501ZM155.854 55.6972C154.82 57.1757 154.249 58.9275 154.212 60.7309C154.118 62.3409 154.224 63.8461 154.017 65.3409C153.699 67.7693 153.126 70.1573 152.306 72.4649C150.4 77.4346 147.386 81.9037 143.491 85.5314C141.364 87.5204 139.087 89.3416 136.679 90.9786C136.44 89.1158 136.202 87.2525 135.964 85.3886V85.3617L135.956 85.3256C135.578 83.2475 135.39 81.1394 135.393 79.0273C135.349 74.1064 136.421 69.2397 138.529 64.7929C140.586 60.4074 143.99 56.7938 148.245 54.4789C151.979 52.5207 156.135 51.5043 160.351 51.518C158.587 52.5962 157.058 54.0173 155.854 55.6972ZM160.553 49.1117C155.875 49.0691 151.259 50.1826 147.115 52.3534C142.414 54.9068 138.65 58.8931 136.37 63.7328C135.351 65.8226 134.563 68.017 134.019 70.2773C133.279 65.7275 132.055 61.2695 130.37 56.9789C132.177 53.7375 134.255 50.6543 136.58 47.7621C138.543 45.2749 140.864 43.0919 143.466 41.2841C145.686 39.7001 148.327 38.8109 151.054 38.7289C153.694 38.7841 156.25 39.6677 158.361 41.2548C160.413 42.8263 162.034 44.8905 163.074 47.2558L163.082 47.268C163.138 47.3925 163.501 48.238 163.835 49.0629C163.866 49.1366 163.896 49.2109 163.925 49.2841C162.805 49.17 161.68 49.1124 160.554 49.1117H160.553Z" fill="#726658"/>
</g>
<defs>
<clipPath id="clip0">
<rect width="250.931" height="242.032" fill="white"/>
</clipPath>
</defs>
</svg>
