<svg width="1353" height="126" viewBox="0 0 1353 126" fill="none" xmlns="http://www.w3.org/2000/svg">
<g clip-path="url(#clip0)">
<path d="M1353.25 0.220825H0V126.411H1353.25V0.220825Z" fill="#4A375C"/>
<path d="M1013.01 108.817C1016.94 102.986 1013.84 88.5489 1014.46 82.397C1015.38 73.2232 1016.71 63.9911 1018.44 54.7007C1022.03 35.9837 1026.85 17.5229 1032.86 -0.5625C1044.96 -37.4585 1061.4 -74.2793 1078.47 -110.966C1093.57 -143.428 1110.23 -175.843 1131.74 -207.324C1144.95 -226.659 1191.29 -269.174 1168.71 -284.949C1162.33 -289.414 1144.26 -278.369 1146.71 -275.833C1123.3 -300.048 1104.42 -256.009 1077.97 -253.843C1068.15 -251.762 1065.13 -269.998 1050.78 -269.245C1028.12 -268.451 1018.3 -258.933 1003.19 -246.014C954.088 -205.872 904.233 -138.692 875.529 -92.5765C830.205 -24.0682 798.477 55.8645 821.891 117.257C831.709 144.921 912.538 203.302 961.637 178.033C970.699 173.255 980.519 156.304 985.055 150.198C985.055 150.198 1013 108.822 1013.01 108.817Z" fill="#E88FA7"/>
<path d="M1287.72 -86.247C1280.06 -89.0404 1264.65 -79.4559 1257.54 -77.8734C1246.95 -75.4974 1236.18 -73.6216 1225.23 -72.246C1203.24 -69.6094 1181.08 -68.639 1158.95 -69.3431C1114.01 -70.58 1067.95 -77.4325 1021.87 -85.1307C981.092 -91.9491 939.936 -100.781 898.493 -116.208C873.037 -125.681 812.272 -168.714 800.754 -133.599C797.493 -123.665 814.952 -104.745 817.129 -108.881C796.331 -69.4174 851.203 -62.2362 860.981 -29.1068C866.051 -17.2982 846.336 -6.34998 851.164 11.7877C858.344 40.5929 871.796 49.5197 890.546 63.92C949.407 111.423 1038.95 149.418 1098.88 168.412C1188.67 200.07 1287.55 209.837 1350.25 155.964C1378.7 132.629 1422.08 6.17303 1379.98 -47.0995C1372.08 -56.8866 1350.25 -62.9286 1342.11 -66.3861C1342.11 -66.3861 1287.73 -86.247 1287.72 -86.247Z" fill="#A08BC1"/>
</g>
<defs>
<clipPath id="clip0">
<rect width="1353" height="126" fill="white"/>
</clipPath>
</defs>
</svg>
